<svg xmlns:mydata="http://www.w3.org/2000/svg" mydata:contrastcolor="11111f" mydata:template="Contrast" mydata:presentation="2.5" mydata:layouttype="undefined" mydata:specialfontid="undefined" mydata:id1="673" mydata:id2="001" mydata:companyname="4Devs by Tiago S. C." mydata:companytagline="From a Dev, to Devs" version="1.1" xmlns="http://www.w3.org/2000/svg" xmlns:xlink="http://www.w3.org/1999/xlink" viewBox="0 45 550 380" style="max-height: 275px;"><g fill="#ff8200" fill-rule="none" stroke="none" stroke-width="1" stroke-linecap="butt" stroke-linejoin="miter" stroke-miterlimit="10" stroke-dasharray="" stroke-dashoffset="0" font-family="none" font-weight="none" font-size="none" text-anchor="none" style="mix-blend-mode: normal"><g data-paper-data="{&quot;isGlobalGroup&quot;:true,&quot;bounds&quot;:{&quot;x&quot;:88.83929189081556,&quot;y&quot;:115,&quot;width&quot;:372.3214162183688,&quot;height&quot;:240}}"><g data-paper-data="{&quot;textHeightFactor&quot;:0.49196416526833847,&quot;isSecondaryText&quot;:true}" fill-rule="nonzero"><path d="M135.66243,353.16139v-3.67723h3.15835v-1.57918h-3.15835v-1.5679h2.71844v-1.57918h-4.46682v8.40348z" data-paper-data="{&quot;glyphName&quot;:&quot;F&quot;,&quot;glyphIndex&quot;:0,&quot;firstGlyphOfWord&quot;:true,&quot;word&quot;:1}"></path><path d="M150.71841,351.70629l1.37614,1.4551h2.32365l-1.81605,-1.94013c1.1731,-0.54143 1.89501,-1.64686 1.89501,-3.15835c0,-1.82733 -1.5115,-3.30499 -3.48547,-3.30499h-2.92148v8.40348h1.74837v-1.4551zM149.83858,350.12711v-3.79003h1.0603c1.21822,0 1.83861,0.83471 1.83861,1.86117c0,1.1731 -0.69935,1.92885 -1.94013,1.92885z" data-paper-data="{&quot;glyphName&quot;:&quot;R&quot;,&quot;glyphIndex&quot;:1,&quot;word&quot;:1}"></path><path d="M168.858,353.30802c2.40261,0 4.34274,-1.95141 4.34274,-4.35402c0,-2.40261 -1.94013,-4.34274 -4.35402,-4.34274c-2.40261,0 -4.34274,1.94013 -4.34274,4.34274c0,2.40261 1.94013,4.35402 4.35402,4.35402zM168.84672,346.28068c1.42126,0 2.56052,1.19566 2.56052,2.67332c0,1.50022 -1.12798,2.67332 -2.54924,2.67332c-1.44382,0 -2.56052,-1.1731 -2.56052,-2.67332c0,-1.47766 1.1167,-2.67332 2.54924,-2.67332z" data-paper-data="{&quot;glyphName&quot;:&quot;O&quot;,&quot;glyphIndex&quot;:2,&quot;word&quot;:1}"></path><path d="M189.1355,348.0065l-4.4781,-3.39523v8.55012h1.74837v-5.06465l2.72972,1.97397l2.72972,-1.97397v5.06465h1.74837v-8.55012z" data-paper-data="{&quot;glyphName&quot;:&quot;M&quot;,&quot;glyphIndex&quot;:3,&quot;lastGlyphOfWord&quot;:true,&quot;word&quot;:1}"></path><path d="M222.83654,353.16139h1.90629l-4.44426,-8.55012l-4.43298,8.55012h1.80477l0.54143,-1.12798h4.07202zM220.2309,347.8373l1.2859,2.61692h-2.54924z" data-paper-data="{&quot;glyphName&quot;:&quot;A&quot;,&quot;glyphIndex&quot;:4,&quot;firstGlyphOfWord&quot;:true,&quot;lastGlyphOfWord&quot;:true,&quot;word&quot;:2}"></path><path d="M246.63128,344.75791v8.40348h3.41779c2.41389,0 4.38786,-1.79349 4.38786,-4.20738c0,-2.39133 -1.97397,-4.1961 -4.39914,-4.1961zM248.37966,351.58221v-5.24512h1.65814c1.46638,0 2.60564,1.09414 2.60564,2.61692c0,1.5115 -1.13926,2.6282 -2.59436,2.6282z" data-paper-data="{&quot;glyphName&quot;:&quot;D&quot;,&quot;glyphIndex&quot;:5,&quot;firstGlyphOfWord&quot;:true,&quot;word&quot;:3}"></path><path d="M269.63993,353.16139v-1.57918h-3.46291v-2.09805h3.15835v-1.57918h-3.15835v-1.5679h2.71844v-1.57918h-4.46682v8.40348z" data-paper-data="{&quot;glyphName&quot;:&quot;E&quot;,&quot;glyphIndex&quot;:6,&quot;word&quot;:3}"></path><path d="M282.37469,349.6872l-2.54924,-4.92929h-2.00781l4.48938,8.55012l4.27506,-8.55012h-1.80477z" data-paper-data="{&quot;glyphName&quot;:&quot;V&quot;,&quot;glyphIndex&quot;:7,&quot;word&quot;:3}"></path><path d="M295.04364,355l1.5679,-2.56052h-1.80477l-0.75575,2.56052z" data-paper-data="{&quot;glyphName&quot;:&quot;,&quot;,&quot;glyphIndex&quot;:8,&quot;lastGlyphOfWord&quot;:true,&quot;word&quot;:3}"></path><path d="M319.65776,353.16139v-6.8243h2.21085v-1.57918h-6.03471v1.57918h2.07549v6.8243z" data-paper-data="{&quot;glyphName&quot;:&quot;T&quot;,&quot;glyphIndex&quot;:9,&quot;firstGlyphOfWord&quot;:true,&quot;word&quot;:4}"></path><path d="M335.02573,353.30802c2.40261,0 4.34274,-1.95141 4.34274,-4.35402c0,-2.40261 -1.94013,-4.34274 -4.35402,-4.34274c-2.40261,0 -4.34274,1.94013 -4.34274,4.34274c0,2.40261 1.94013,4.35402 4.35402,4.35402zM335.01445,346.28068c1.42126,0 2.56052,1.19566 2.56052,2.67332c0,1.50022 -1.12798,2.67332 -2.54924,2.67332c-1.44382,0 -2.56052,-1.1731 -2.56052,-2.67332c0,-1.47766 1.1167,-2.67332 2.54924,-2.67332z" data-paper-data="{&quot;glyphName&quot;:&quot;O&quot;,&quot;glyphIndex&quot;:10,&quot;lastGlyphOfWord&quot;:true,&quot;word&quot;:4}"></path><path d="M362.04667,344.75791v8.40348h3.41779c2.41389,0 4.38786,-1.79349 4.38786,-4.20738c0,-2.39133 -1.97397,-4.1961 -4.39914,-4.1961zM363.79505,351.58221v-5.24512h1.65814c1.46638,0 2.60564,1.09414 2.60564,2.61692c0,1.5115 -1.13926,2.6282 -2.59436,2.6282z" data-paper-data="{&quot;glyphName&quot;:&quot;D&quot;,&quot;glyphIndex&quot;:11,&quot;firstGlyphOfWord&quot;:true,&quot;word&quot;:5}"></path><path d="M385.05533,353.16139v-1.57918h-3.46291v-2.09805h3.15835v-1.57918h-3.15835v-1.5679h2.71844v-1.57918h-4.46682v8.40348z" data-paper-data="{&quot;glyphName&quot;:&quot;E&quot;,&quot;glyphIndex&quot;:12,&quot;word&quot;:5}"></path><path d="M397.79009,349.6872l-2.54924,-4.92929h-2.00781l4.48938,8.55012l4.27506,-8.55012h-1.80477z" data-paper-data="{&quot;glyphName&quot;:&quot;V&quot;,&quot;glyphIndex&quot;:13,&quot;word&quot;:5}"></path><path d="M413.00655,349.43904c0.81215,0.09024 1.26334,0.50759 1.26334,1.18438c0,0.54143 -0.45119,1.00391 -1.02647,1.00391c-0.49631,0 -0.89111,-0.12408 -1.27462,-0.60911l-1.44382,1.0603c0.80087,0.87983 1.75965,1.2295 2.71844,1.2295c1.47766,0 2.84252,-1.1731 2.84252,-2.80868c0,-1.6243 -1.18438,-2.59436 -2.61692,-2.6846c-0.89111,-0.0564 -1.1731,-0.40607 -1.1731,-0.78959c0,-0.46247 0.31584,-0.74447 0.77831,-0.74447c0.29328,0 0.66551,0.18048 0.89111,0.41735l1.37614,-1.00391c-0.64295,-0.76703 -1.43254,-1.08286 -2.26725,-1.08286c-1.16182,0 -2.47028,1.00391 -2.47028,2.42517c0,1.31974 0.94751,2.23341 2.40261,2.40261z" data-paper-data="{&quot;glyphName&quot;:&quot;S&quot;,&quot;glyphIndex&quot;:14,&quot;lastGlyphOfWord&quot;:true,&quot;word&quot;:5}"></path><path d="M88.83929,335.04874v-1.16558h372.32142v1.16558z" data-paper-data="{&quot;isContainerTopLineAboveSecondaryText&quot;:true}"></path></g><g data-paper-data="{&quot;isPrimaryText&quot;:true}" fill-rule="nonzero"><path d="M96.57957,290.83653l-0.34762,2.38697l1.94666,0.11587l-9.33932,19.51292l0.02317,4.24093l13.64978,0.37079v6.37299h-2.54919l-0.02317,3.01268l11.40185,-0.64889l-0.53301,-2.3638h-1.45999l0.30127,-6.18759l3.08221,0.0927l-0.64889,-4.88982h-2.22475l0.37079,-7.87933l-7.74028,0.13905l0.02317,7.74028h-5.37648l9.13075,-19.02626l2.01618,0.11587v-3.10538z" data-paper-data="{&quot;glyphName&quot;:&quot;4&quot;,&quot;glyphIndex&quot;:0,&quot;firstGlyphOfWord&quot;:true,&quot;word&quot;:1}"></path><path d="M124.48166,308.79677c-1.66856,0 -3.08993,0.59481 -4.26411,1.78444c-1.18962,1.17417 -1.78444,2.59554 -1.78444,4.26411c0,1.66856 0.59481,3.08993 1.78444,4.26411c1.17417,1.18962 2.59554,1.78444 4.26411,1.78444h2.2711l-0.57936,-12.09709zM124.48166,326.54843c-3.22898,0 -5.98674,-1.14328 -8.27329,-3.42983c-2.28655,-2.28655 -3.42983,-5.04431 -3.42983,-8.27329c0,-3.22898 1.14328,-5.98674 3.42983,-8.27329c2.28655,-2.28655 5.04431,-3.42983 8.27329,-3.42983h1.99301l0.50984,-5.46918l-2.64189,0.16222v-2.59554h10.359l0.30127,1.90031l-2.57237,0.16222v27.20686h1.66856l0.02317,2.10888z" data-paper-data="{&quot;glyphName&quot;:&quot;d&quot;,&quot;glyphIndex&quot;:1,&quot;word&quot;:1}"></path><path d="M148.21234,308.75042c-1.28232,0.04635 -2.44105,0.45577 -3.47617,1.22825c-1.01968,0.77248 -1.73036,1.76899 -2.13205,2.98951l-0.0927,0.32444l11.23963,0.20857l-0.02317,-0.27809c-0.0618,-1.12783 -0.57164,-2.12433 -1.52952,-2.98951c-1.05058,-0.94243 -2.37925,-1.43682 -3.98601,-1.48317zM148.42092,326.61795c-2.99723,0 -5.60823,-0.9965 -7.83298,-2.98951c-2.2402,-1.99301 -3.52252,-4.4804 -3.84697,-7.46219l-0.04635,-0.25492l-1.73809,0.20857v-2.50285l1.76126,-0.02317l0.02317,-0.20857c0.35534,-3.02813 1.59132,-5.50008 3.70792,-7.41584c2.13205,-1.91576 4.70442,-2.87364 7.71711,-2.87364c3.25988,0 5.85542,0.98878 7.78663,2.96634c1.39047,1.43682 2.38697,3.34485 2.98951,5.7241c0.20085,0.81883 0.34762,1.66084 0.44032,2.52602c0.0309,0.30899 0.05407,0.61799 0.06952,0.92698c0.01545,0.2163 0.02317,0.42487 0.02317,0.62571l-17.03325,0.27809l0.0927,0.30127c0.35534,1.32867 1.08148,2.41787 2.1784,3.2676c1.09693,0.83428 2.3329,1.25142 3.70792,1.25142h1.59904v5.65458z" data-paper-data="{&quot;glyphName&quot;:&quot;e&quot;,&quot;glyphIndex&quot;:2,&quot;word&quot;:1}"></path><path d="M159.47515,303.60568l0.37079,1.87713l1.73809,0.04635l8.73678,20.67165l1.78444,-0.74158l2.34062,1.15872l9.10758,-20.83387h1.48317v-2.61872l-10.66027,0.69523l0.30127,1.92348h2.03936l-5.44601,12.30566l-5.19109,-12.4447l1.55269,0.02317l0.04635,-2.50285z" data-paper-data="{&quot;glyphName&quot;:&quot;v&quot;,&quot;glyphIndex&quot;:3,&quot;word&quot;:1}"></path><path d="M195.65053,326.61795c-2.93544,0 -5.11384,-0.79566 -6.53521,-2.38697c-1.08148,-1.18962 -1.69174,-2.80411 -1.83079,-4.84347l-0.02317,-0.20857l-1.83079,-0.06952l-0.34762,-1.90031l7.8098,-0.27809l-0.0927,2.50285l-1.57587,-0.02317v0.25492c0,0.69523 0.34762,1.25915 1.04285,1.69174c0.64889,0.38624 1.47544,0.57936 2.47967,0.57936h0.39397c0.89608,-0.0618 1.64539,-0.37852 2.24793,-0.95015c0.60254,-0.57164 0.94243,-1.29777 1.01968,-2.1784c0.0618,-0.88063 -0.1545,-1.62994 -0.64889,-2.24793c-0.50984,-0.63344 -1.20507,-1.00423 -2.0857,-1.11238c-6.39616,-0.83428 -9.64831,-3.34485 -9.75646,-7.53171c-0.0618,-2.00846 0.62571,-3.74654 2.06253,-5.21426c1.49862,-1.54497 3.32168,-2.31745 5.46918,-2.31745h4.58855v-1.55269h2.59554l-0.67206,8.89901l-1.92348,-0.30127v-1.39047h-4.58855c-0.58709,0 -1.08148,0.22402 -1.48317,0.67206c-0.32444,0.37079 -0.45577,0.78793 -0.39397,1.25142c0.07725,0.67979 0.36307,1.17417 0.85746,1.48317c0.30899,0.1854 0.87291,0.37079 1.69174,0.55619l0.32444,0.06952l0.53301,0.11587l0.50984,0.11587c1.68401,0.35534 3.05131,0.76476 4.10189,1.22825c1.35957,0.61799 2.44105,1.52952 3.24443,2.73459c0.81883,1.20507 1.22825,2.51829 1.22825,3.93966c0,2.31745 -0.82656,4.30273 -2.47967,5.95584c-1.63766,1.63766 -3.61522,2.4565 -5.93267,2.4565z" data-paper-data="{&quot;glyphName&quot;:&quot;s&quot;,&quot;glyphIndex&quot;:4,&quot;lastGlyphOfWord&quot;:true,&quot;word&quot;:1}"></path><path d="M226.77388,320.89385h2.24793c1.66856,0 3.09766,-0.59481 4.28728,-1.78444c1.17417,-1.17417 1.76126,-2.59554 1.76126,-4.26411c0,-1.66856 -0.58709,-3.08993 -1.76126,-4.26411c-1.18962,-1.17417 -2.61872,-1.76126 -4.28728,-1.76126h-1.69174zM219.40439,324.50907h1.69174l-0.02317,-27.20686l-2.57237,-0.16222l0.30127,-1.90031h10.359v2.59554l-2.61872,-0.13905l-0.04635,5.44601h2.52602c3.22898,0 5.98674,1.14328 8.27329,3.42983c2.28655,2.28655 3.42983,5.04431 3.42983,8.27329c0,3.22898 -1.14328,5.98674 -3.42983,8.27329c-2.28655,2.28655 -5.04431,3.42983 -8.27329,3.42983l-9.64059,0.06952z" data-paper-data="{&quot;glyphName&quot;:&quot;b&quot;,&quot;glyphIndex&quot;:5,&quot;firstGlyphOfWord&quot;:true,&quot;word&quot;:2}"></path><path d="M250.08742,334.72902c-1.23597,0 -2.4256,-0.23947 -3.56887,-0.71841c-0.77248,-0.30899 -1.66084,-0.81111 -2.66507,-1.50634l-0.1854,-0.11587l-1.2746,1.45999l-1.71491,-0.9965l4.37998,-5.33013l1.62221,1.01968l-0.9965,1.2746l0.06952,0.13905c0.10815,0.2163 0.40942,0.44804 0.90381,0.69523c0.57164,0.26264 1.15872,0.39397 1.76126,0.39397c1.08148,0 2.00846,-0.44032 2.78094,-1.32095c0.52529,-0.60254 0.98878,-1.43682 1.39047,-2.50285c0.1236,-0.33989 0.23947,-0.68751 0.34762,-1.04285c0.0309,-0.10815 0.0618,-0.2163 0.0927,-0.32444l0.02317,-0.0927v-0.04635l0.02317,-0.06952l-8.50504,-20.18498l-1.73809,-0.02317l-0.39397,-1.87713l9.10758,-0.44032l-0.06952,2.50285l-1.55269,-0.04635l5.6314,13.46438l5.88632,-13.32533h-2.03936l-0.27809,-1.90031l10.66027,-0.69523v2.59554h-1.48317l-11.5409,23.52211c-0.98878,1.93121 -2.00846,3.3294 -3.05903,4.19458c-1.05058,0.86518 -2.25565,1.29777 -3.61522,1.29777z" data-paper-data="{&quot;glyphName&quot;:&quot;y&quot;,&quot;glyphIndex&quot;:6,&quot;lastGlyphOfWord&quot;:true,&quot;word&quot;:2}"></path><path d="M294.21166,326.61795c-2.3329,0 -4.05554,-0.9347 -5.16791,-2.80411c-0.43259,-0.72613 -0.76476,-1.58359 -0.9965,-2.57237c-0.1854,-0.75703 -0.30127,-1.56814 -0.34762,-2.43332l-0.57936,-13.9047l-2.75776,0.06952l-0.13905,-3.08221l2.91999,-0.23174v-8.29647l5.42283,-0.57936v8.89901h7.23044l-0.25492,2.80411l-6.97552,0.23174l-0.0927,13.78882c0.0618,0.69523 0.34762,1.28232 0.85746,1.76126c0.49439,0.46349 1.08148,0.69523 1.76126,0.69523c0.72613,0 1.35185,-0.26264 1.87713,-0.78793c0.50984,-0.50984 0.76476,-1.12783 0.76476,-1.85396v-0.76476l-2.54919,-0.16222l0.41714,-1.87713h6.906l0.02317,2.50285l-1.76126,-0.11587v0.41714c0,2.59554 -0.57936,4.62717 -1.73809,6.09489c-1.15872,1.46772 -2.76549,2.20158 -4.82029,2.20158z" data-paper-data="{&quot;glyphName&quot;:&quot;t&quot;,&quot;glyphIndex&quot;:7,&quot;firstGlyphOfWord&quot;:true,&quot;word&quot;:3}"></path><path d="M302.73987,303.62885l-0.30127,1.90031l2.57237,0.16222l0.02317,18.42372h-2.57237l-0.02317,2.50285l10.84566,-0.62571l-0.41714,-1.87713h-1.50634l0.83428,-17.98341l1.78444,0.0927v-2.59554zM308.60302,300.54665c-0.98878,0 -1.83851,-0.35534 -2.54919,-1.06603c-0.69523,-0.69523 -1.04285,-1.54497 -1.04285,-2.54919c0,-0.98878 0.34762,-1.83851 1.04285,-2.54919c0.71068,-0.69523 1.56042,-1.04285 2.54919,-1.04285c1.00423,0 1.85396,0.34762 2.54919,1.04285c0.71068,0.71068 1.06603,1.56042 1.06603,2.54919c0,1.00423 -0.35534,1.85396 -1.06603,2.54919c-0.69523,0.71068 -1.54497,1.06603 -2.54919,1.06603z" data-paper-data="{&quot;glyphName&quot;:&quot;i&quot;,&quot;glyphIndex&quot;:8,&quot;word&quot;:3}"></path><path d="M322.55406,315.0307c-0.81883,0 -1.51407,0.28582 -2.0857,0.85746c-0.57164,0.57164 -0.85746,1.25915 -0.85746,2.06253c0,0.81883 0.28582,1.51407 0.85746,2.0857c0.57164,0.57164 1.26687,0.85746 2.0857,0.85746h5.79362l-0.06952,-5.86315zM322.55406,326.54843c-2.37925,0 -4.40315,-0.84201 -6.07172,-2.52602c-1.68401,-1.66856 -2.52602,-3.69247 -2.52602,-6.07172c0,-2.3638 0.84201,-4.37998 2.52602,-6.04854c1.66856,-1.68401 3.69247,-2.52602 6.07172,-2.52602h5.67775l-0.02317,-0.27809c-0.16995,-1.66856 -0.72613,-2.88136 -1.66856,-3.6384c-0.94243,-0.75703 -2.37925,-1.13555 -4.31046,-1.13555h-2.41015l0.06952,1.29777l-1.83079,0.55619l-1.1819,-9.03805l2.50285,-0.16222l0.0927,1.69174h2.75776c3.83152,0 6.63563,0.89608 8.41234,2.68824c1.77671,1.80761 2.84274,4.82029 3.19808,9.03805c0.1236,1.43682 0.26264,4.17913 0.41714,8.22695c0.04635,1.28232 0.10042,2.61872 0.16222,4.00919c0.01545,0.43259 0.0309,0.84973 0.04635,1.25142c0,0.1236 0,0.23947 0,0.34762v0.13905l0.02317,0.23174l1.96983,0.11587l-0.30127,1.90031z" data-paper-data="{&quot;glyphName&quot;:&quot;a&quot;,&quot;glyphIndex&quot;:9,&quot;word&quot;:3}"></path><path d="M348.1387,308.91264c-1.66856,0 -3.08993,0.59481 -4.26411,1.78444c-1.18962,1.17417 -1.78444,2.59554 -1.78444,4.26411c0,1.66856 0.59481,3.08993 1.78444,4.26411c1.17417,1.17417 2.59554,1.76126 4.26411,1.76126h2.22475l-0.57936,-12.07391zM339.54097,340.98614l1.1819,-8.13425l1.83079,0.53301l-0.06952,1.29777h2.41015c1.90031,-0.1854 3.35258,-0.90381 4.3568,-2.15523c0.75703,-0.97333 1.22052,-2.18613 1.39047,-3.6384c0.04635,-0.46349 0.0618,-0.9347 0.04635,-1.41364c0,-0.13905 -0.00772,-0.27809 -0.02317,-0.41714l-0.02317,-0.13905v-0.02317v-0.02317l-0.02317,-0.23174h-2.47967c-3.22898,0 -5.98674,-1.14328 -8.27329,-3.42983c-2.28655,-2.28655 -3.42983,-5.03659 -3.42983,-8.25012c0,-3.22898 1.14328,-5.98674 3.42983,-8.27329c2.28655,-2.28655 5.04431,-3.42983 8.27329,-3.42983l10.52122,0.02317l-0.02317,2.52602h-1.71491v0.23174v0.20857c0,0.1545 -0.00772,0.33217 -0.02317,0.53301c0,0.58709 -0.00772,1.22052 -0.02317,1.90031c-0.01545,2.10115 -0.03862,4.14051 -0.06952,6.11807c-0.0927,6.22621 -0.17767,10.55212 -0.25492,12.97772c-0.10815,3.55342 -1.22052,6.38844 -3.33713,8.50504c-2.1166,2.1166 -4.88982,3.17491 -8.31964,3.17491h-2.75776l-0.0927,1.69174z" data-paper-data="{&quot;glyphName&quot;:&quot;g&quot;,&quot;glyphIndex&quot;:10,&quot;word&quot;:3}"></path><path d="M370.61796,308.35645c-1.73036,0 -3.21353,0.61799 -4.4495,1.85396c-1.23597,1.22052 -1.85396,2.70369 -1.85396,4.4495c0,1.73036 0.61799,3.21353 1.85396,4.4495c1.23597,1.23597 2.71914,1.85396 4.4495,1.85396c1.74581,0 3.2367,-0.61799 4.47268,-1.85396c1.22052,-1.23597 1.83079,-2.71914 1.83079,-4.4495c0,-1.74581 -0.61026,-3.22898 -1.83079,-4.4495c-1.23597,-1.23597 -2.72687,-1.85396 -4.47268,-1.85396zM370.61796,326.61795c-3.29078,0 -6.11034,-1.16645 -8.45869,-3.49935c-2.3329,-2.34835 -3.49935,-5.16791 -3.49935,-8.45869c0,-3.30623 1.16645,-6.12579 3.49935,-8.45869c2.34835,-2.3329 5.16791,-3.49935 8.45869,-3.49935c3.30623,0 6.12579,1.16645 8.45869,3.49935c2.3329,2.3329 3.49935,5.15246 3.49935,8.45869c0,3.29078 -1.16645,6.11034 -3.49935,8.45869c-2.3329,2.3329 -5.15246,3.49935 -8.45869,3.49935z" data-paper-data="{&quot;glyphName&quot;:&quot;o&quot;,&quot;glyphIndex&quot;:11,&quot;lastGlyphOfWord&quot;:true,&quot;word&quot;:3}"></path><path d="M407.69715,326.61795c-2.93544,0 -5.11384,-0.79566 -6.53521,-2.38697c-1.08148,-1.18962 -1.69174,-2.80411 -1.83079,-4.84347l-0.02317,-0.20857l-1.83079,-0.06952l-0.34762,-1.90031l7.8098,-0.27809l-0.0927,2.50285l-1.57587,-0.02317v0.25492c0,0.69523 0.34762,1.25915 1.04285,1.69174c0.64889,0.38624 1.47544,0.57936 2.47967,0.57936h0.39397c0.89608,-0.0618 1.64539,-0.37852 2.24793,-0.95015c0.60254,-0.57164 0.94243,-1.29777 1.01968,-2.1784c0.0618,-0.88063 -0.1545,-1.62994 -0.64889,-2.24793c-0.50984,-0.63344 -1.20507,-1.00423 -2.0857,-1.11238c-6.39616,-0.83428 -9.64831,-3.34485 -9.75646,-7.53171c-0.0618,-2.00846 0.62571,-3.74654 2.06253,-5.21426c1.49862,-1.54497 3.32168,-2.31745 5.46918,-2.31745h4.58855v-1.55269h2.59554l-0.67206,8.89901l-1.92348,-0.30127v-1.39047h-4.58855c-0.58709,0 -1.08148,0.22402 -1.48317,0.67206c-0.32444,0.37079 -0.45577,0.78793 -0.39397,1.25142c0.07725,0.67979 0.36307,1.17417 0.85746,1.48317c0.30899,0.1854 0.87291,0.37079 1.69174,0.55619l0.32444,0.06952l0.53301,0.11587l0.50984,0.11587c1.68401,0.35534 3.05131,0.76476 4.10189,1.22825c1.35957,0.61799 2.44105,1.52952 3.24443,2.73459c0.81883,1.20507 1.22825,2.51829 1.22825,3.93966c0,2.31745 -0.82656,4.30273 -2.47967,5.95584c-1.63766,1.63766 -3.61522,2.4565 -5.93267,2.4565z" data-paper-data="{&quot;glyphName&quot;:&quot;s&quot;,&quot;glyphIndex&quot;:12,&quot;firstGlyphOfWord&quot;:true,&quot;word&quot;:4}"></path><path d="M423.80342,323.00273c0,1.06603 -0.37852,1.97756 -1.13555,2.73459c-0.75703,0.74158 -1.66856,1.11238 -2.73459,1.11238c-1.06603,0 -1.97756,-0.37852 -2.73459,-1.13555c-0.74158,-0.75703 -1.11238,-1.66856 -1.11238,-2.73459c0,-1.06603 0.37852,-1.97756 1.13555,-2.73459c0.75703,-0.74158 1.66856,-1.11238 2.73459,-1.11238c1.06603,0 1.97756,0.37852 2.73459,1.13555c0.74158,0.75703 1.11238,1.66856 1.11238,2.73459z" data-paper-data="{&quot;glyphName&quot;:&quot;.&quot;,&quot;glyphIndex&quot;:13,&quot;lastGlyphOfWord&quot;:true,&quot;word&quot;:4}"></path><path d="M449.9906,326.61795c-3.24443,0 -6.01764,-1.151 -8.31964,-3.453c-2.302,-2.302 -3.453,-5.07521 -3.453,-8.31964c0,-3.24443 1.151,-6.01764 3.453,-8.31964c2.302,-2.302 5.07521,-3.453 8.31964,-3.453h0.83428v-1.25142h2.59554l-0.69523,8.89901l-1.90031,-0.30127v-1.69174h-0.83428c-1.68401,0 -3.12083,0.60254 -4.31046,1.80761c-1.20507,1.18962 -1.80761,2.62644 -1.80761,4.31046c0,1.68401 0.60254,3.12856 1.80761,4.33363c1.18962,1.18962 2.62644,1.78444 4.31046,1.78444h1.59904v5.65458z" data-paper-data="{&quot;glyphName&quot;:&quot;c&quot;,&quot;glyphIndex&quot;:14,&quot;firstGlyphOfWord&quot;:true,&quot;word&quot;:5}"></path><path d="M461.16071,323.00273c0,1.06603 -0.37852,1.97756 -1.13555,2.73459c-0.75703,0.74158 -1.66856,1.11238 -2.73459,1.11238c-1.06603,0 -1.97756,-0.37852 -2.73459,-1.13555c-0.74158,-0.75703 -1.11238,-1.66856 -1.11238,-2.73459c0,-1.06603 0.37852,-1.97756 1.13555,-2.73459c0.75703,-0.74158 1.66856,-1.11238 2.73459,-1.11238c1.06603,0 1.97756,0.37852 2.73459,1.13555c0.74158,0.75703 1.11238,1.66856 1.11238,2.73459z" data-paper-data="{&quot;glyphName&quot;:&quot;.&quot;,&quot;glyphIndex&quot;:15,&quot;lastGlyphOfWord&quot;:true,&quot;word&quot;:5}"></path></g><g data-paper-data="{&quot;isIcon&quot;:&quot;true&quot;,&quot;iconType&quot;:&quot;icon&quot;,&quot;rawIconId&quot;:&quot;1491822&quot;,&quot;source&quot;:&quot;noun&quot;,&quot;selectedEffects&quot;:{&quot;container&quot;:&quot;&quot;,&quot;transformation&quot;:&quot;&quot;,&quot;pattern&quot;:&quot;&quot;},&quot;isDetailed&quot;:false,&quot;fillRule&quot;:&quot;evenodd&quot;,&quot;bounds&quot;:{&quot;x&quot;:201.83053974377546,&quot;y&quot;:115,&quot;width&quot;:146.33892051244905,&quot;height&quot;:146.33892051244902},&quot;iconStyle&quot;:&quot;standalone&quot;,&quot;suitableAsStandaloneIcon&quot;:true}" fill-rule="evenodd"><path d="M226.31103,115h97.19661c13.60027,0 24.48049,10.88022 24.66183,24.48049v97.37794c0,13.41894 -11.06155,24.48049 -24.48049,24.48049h-97.37794c-13.41894,0 -24.48049,-11.06155 -24.48049,-24.48049v-97.37794c0,-13.41894 11.06155,-24.48049 24.48049,-24.48049zM215.97483,188.07879c0,32.45931 26.4752,58.93451 58.93451,58.93451c32.45931,0 58.93451,-26.4752 58.93451,-58.93451c0,-32.45931 -26.4752,-58.93451 -58.93451,-58.93451c-1.99471,0 -3.62674,1.63203 -3.62674,3.62674c0,1.99471 1.63203,3.62674 3.62674,3.62674c28.4699,0 51.68103,23.21113 51.68103,51.68103c0,28.4699 -23.21113,51.68103 -51.68103,51.68103c-28.4699,0 -51.68103,-23.21113 -51.68103,-51.68103c0,-1.99471 -1.63203,-3.62674 -3.62674,-3.62674c-1.99471,0 -3.62674,1.63203 -3.62674,3.62674zM278.53607,145.28327c0,-1.99471 -1.63203,-3.62674 -3.62674,-3.62674c-25.56851,0 -46.42226,20.85375 -46.42226,46.42226c0,25.56851 20.67241,46.42226 46.24093,46.42226c25.56851,0 46.42226,-20.85375 46.42226,-46.42226c0,-1.99471 -1.63203,-3.62674 -3.62674,-3.62674c-1.99471,0 -3.62674,1.63203 -3.62674,3.62674c0,21.5791 -17.40835,38.80611 -38.98745,38.80611c-21.5791,0 -38.98745,-17.40835 -38.98745,-38.98745c0,-21.5791 17.40835,-38.98745 38.98745,-38.98745c1.99471,0 3.62674,-1.63203 3.62674,-3.62674zM271.28259,158.33953c0,1.99471 1.63203,3.62674 3.62674,3.62674c14.32562,0 26.11252,11.7869 26.11252,26.11252c0,14.32562 -11.7869,26.11252 -26.11252,26.11252c-14.32562,0 -26.11252,-11.7869 -26.11252,-26.11252c0,-1.99471 -1.63203,-3.62674 -3.62674,-3.62674c-1.99471,0 -3.62674,1.63203 -3.62674,3.62674c0,18.31503 14.86963,33.366 33.366,33.366c18.31503,0 33.366,-14.86963 33.366,-33.366c0,-18.31503 -14.86963,-33.366 -33.366,-33.366c-1.99471,0 -3.62674,1.63203 -3.62674,3.62674z" data-paper-data="{&quot;isPathIcon&quot;:true}"></path></g></g></g><g class="watermark-group" style="opacity:0.10; stroke: white; stroke-width: 2; stroke-opacity: 0.7;"></g></svg>