<svg width="140" height="19" viewBox="0 0 140 19" fill="none" xmlns="http://www.w3.org/2000/svg">
<path d="M2.91049 0L2.77978 0.897555L3.51177 0.941115L0 8.27836L0.00871254 9.87303L5.14129 10.0125V12.4088H4.18275L4.17404 13.5416L8.46135 13.2976L8.26093 12.4088H7.71195L7.82523 10.0822L8.9842 10.117L8.7402 8.27836H7.90365L8.04308 5.31557L5.13259 5.36786L5.1413 8.27836H3.11964L6.55297 1.12411L7.3111 1.16768V0H2.91049Z" fill="#FF8200"/>
<path d="M13.4022 6.7534C12.7748 6.7534 12.2403 6.97706 11.7988 7.42438C11.3515 7.86589 11.1278 8.40035 11.1278 9.02777C11.1278 9.65518 11.3515 10.1896 11.7988 10.6312C12.2403 11.0785 12.7748 11.3021 13.4022 11.3021H14.2562L14.0383 6.7534H13.4022ZM13.4022 13.4284C12.1881 13.4284 11.1511 12.9985 10.2913 12.1387C9.43151 11.2789 9.00162 10.2419 9.00162 9.02777C9.00162 7.81361 9.43151 6.77664 10.2913 5.91685C11.1511 5.05706 12.1881 4.62717 13.4022 4.62717H14.1516L14.3433 2.57065L13.3499 2.63165V1.65568H17.2451L17.3584 2.37024L16.3911 2.43123V12.6615H17.0185L17.0273 13.4545L13.4022 13.4284Z" fill="#FF8200"/>
<path d="M22.3254 6.73597C21.8432 6.7534 21.4075 6.90735 21.0183 7.19782C20.6349 7.48828 20.3677 7.86299 20.2166 8.32193L20.1818 8.44393L24.4081 8.52235L24.3994 8.41779C24.3761 7.9937 24.1844 7.61899 23.8242 7.29367C23.4292 6.9393 22.9296 6.7534 22.3254 6.73597ZM22.4038 13.4545C21.2768 13.4545 20.295 13.0798 19.4585 12.3304C18.6161 11.581 18.134 10.6457 18.012 9.52447L17.9945 9.42861L17.341 9.50704V8.56591L18.0032 8.5572L18.012 8.47878C18.1456 7.34015 18.6103 6.41065 19.4062 5.69029C20.2079 4.96992 21.1752 4.60974 22.308 4.60974C23.5338 4.60974 24.5097 4.98154 25.2359 5.72514C25.7587 6.26541 26.1334 6.98286 26.36 7.8775C26.4355 8.1854 26.4907 8.50202 26.5256 8.82734C26.5372 8.94353 26.5459 9.05971 26.5517 9.1759C26.5575 9.25723 26.5604 9.33567 26.5604 9.41119L20.1556 9.51575L20.1905 9.62903C20.3241 10.1286 20.5971 10.5382 21.0096 10.8577C21.4221 11.1714 21.8868 11.3283 22.4038 11.3283H23.0051V13.4545H22.4038Z" fill="#FF8200"/>
<path d="M26.5604 4.80145L26.6999 5.50729L27.3534 5.52472L30.6386 13.2977L31.3096 13.0188L32.1897 13.4545L35.6143 5.62057H36.1721V4.63589L32.1636 4.8973L32.2769 5.62056H33.0437L30.9959 10.2477L29.0439 5.56828L29.6278 5.577L29.6452 4.63588L26.5604 4.80145Z" fill="#FF8200"/>
<path d="M40.1631 13.4545C39.0593 13.4545 38.2402 13.1553 37.7057 12.557C37.2991 12.1096 37.0696 11.5026 37.0173 10.7357L37.0086 10.6573L36.3202 10.6311L36.1895 9.9166L39.1261 9.81204L39.0912 10.7532L38.4987 10.7444V10.8403C38.4987 11.1017 38.6294 11.3138 38.8908 11.4764C39.1348 11.6217 39.4456 11.6943 39.8232 11.6943H39.9714C40.3083 11.671 40.5901 11.5519 40.8166 11.337C41.0432 11.1221 41.171 10.849 41.2 10.5179C41.2233 10.1867 41.1419 9.90499 40.956 9.67261C40.7643 9.43443 40.5029 9.295 40.1718 9.25433C37.7667 8.94063 36.5438 7.9966 36.5032 6.42227C36.4799 5.66705 36.7384 5.0135 37.2787 4.46161C37.8422 3.88067 38.5277 3.5902 39.3352 3.5902H41.0606V3.00636H42.0366L41.7839 6.35256L41.0606 6.23928V5.71644H39.3352C39.1145 5.71644 38.9286 5.80067 38.7775 5.96914C38.6555 6.10857 38.6062 6.26541 38.6294 6.4397C38.6584 6.69531 38.7659 6.88121 38.9518 6.9974C39.068 7.06712 39.28 7.13682 39.5879 7.20654L39.7099 7.23268L39.9104 7.27625L40.1021 7.31982C40.7353 7.45344 41.2494 7.60738 41.6445 7.78166C42.1557 8.01404 42.5623 8.35679 42.8644 8.80992C43.1723 9.26305 43.3263 9.75685 43.3263 10.2913C43.3263 11.1627 43.0155 11.9092 42.3939 12.5308C41.7781 13.1466 41.0345 13.4545 40.1631 13.4545Z" fill="#FF8200"/>
<path d="M51.8661 11.3021H52.7113C53.3387 11.3021 53.8761 11.0785 54.3234 10.6311C54.7649 10.1896 54.9857 9.65518 54.9857 9.02777C54.9857 8.40035 54.7649 7.86588 54.3234 7.42437C53.8761 6.98286 53.3387 6.7621 52.7113 6.7621H52.0752L51.8661 11.3021ZM49.095 12.6615H49.7311L49.7224 2.43123L48.7551 2.37022L48.8684 1.65568H52.7636V2.63164L51.7789 2.57936L51.7615 4.62717H52.7113C53.9255 4.62717 54.9625 5.05706 55.8222 5.91685C56.682 6.77664 57.1119 7.81361 57.1119 9.02777C57.1119 10.2419 56.682 11.2789 55.8222 12.1387C54.9625 12.9985 53.9255 13.4284 52.7113 13.4284L49.0863 13.4545L49.095 12.6615Z" fill="#FF8200"/>
<path d="M60.6324 16.5044C60.1676 16.5044 59.7203 16.4144 59.2904 16.2343C59 16.1181 58.6659 15.9293 58.2883 15.6679L58.2186 15.6243L57.7393 16.1733L57.0945 15.7986L58.7414 13.7944L59.3514 14.1778L58.9767 14.657L59.0029 14.7093C59.0435 14.7907 59.1568 14.8778 59.3427 14.9708C59.5577 15.0695 59.7784 15.1189 60.005 15.1189C60.4116 15.1189 60.7602 14.9533 61.0507 14.6222C61.2482 14.3956 61.4225 14.0819 61.5735 13.6811C61.62 13.5533 61.6636 13.4226 61.7042 13.2889C61.7158 13.2483 61.7275 13.2076 61.7391 13.1669L61.7478 13.1321V13.1147L61.7565 13.0885L58.5584 5.49858L57.9049 5.48987L57.7568 4.78403L61.1814 4.61846L61.1552 5.55958L60.5714 5.54215L62.6889 10.605L64.9023 5.59443H64.1354L64.0309 4.87988L68.0393 4.61847V5.59443H67.4816L63.142 14.4392C62.7702 15.1654 62.3868 15.6911 61.9918 16.0164C61.5967 16.3418 61.1436 16.5044 60.6324 16.5044Z" fill="#FF8200"/>
<path d="M77.224 13.4545C76.3467 13.4545 75.699 13.103 75.2807 12.4001C75.1181 12.1271 74.9932 11.8046 74.906 11.4328C74.8363 11.1482 74.7927 10.8432 74.7753 10.5179L74.5574 5.28943L73.5205 5.31557L73.4682 4.1566L74.5662 4.06947V0.949836L76.6053 0.731991V4.07818H79.324L79.2282 5.13258L76.6053 5.21972L76.5704 10.4046C76.5936 10.666 76.7011 10.8868 76.8928 11.0669C77.0787 11.2411 77.2995 11.3283 77.5551 11.3283C77.8281 11.3283 78.0634 11.2295 78.2609 11.032C78.4526 10.8403 78.5485 10.6079 78.5485 10.3349V10.0473L77.5899 9.98631L77.7468 9.28047H80.3436L80.3523 10.2216L79.69 10.178V10.3349C79.69 11.3108 79.4722 12.0748 79.0365 12.6267C78.6008 13.1786 77.9966 13.4545 77.224 13.4545Z" fill="#FF8200"/>
<path d="M80.4307 4.81016L80.3174 5.52472L81.2847 5.58571L81.2934 12.5134H80.3261L80.3174 13.4545L84.3956 13.2192L84.2388 12.5134H83.6723L83.9861 5.75129L84.657 5.78614V4.81016H80.4307ZM82.6354 3.6512C82.2636 3.6512 81.9441 3.51758 81.6768 3.25035C81.4154 2.98893 81.2847 2.66941 81.2847 2.2918C81.2847 1.92 81.4154 1.60049 81.6768 1.33326C81.9441 1.07184 82.2636 0.941127 82.6354 0.941127C83.013 0.941127 83.3325 1.07184 83.5939 1.33326C83.8612 1.60049 83.9948 1.92001 83.9948 2.2918C83.9948 2.66941 83.8612 2.98893 83.5939 3.25035C83.3325 3.51758 83.013 3.6512 82.6354 3.6512Z" fill="#FF8200"/>
<path d="M87.8812 9.09748C87.5733 9.09748 87.3119 9.20495 87.097 9.4199C86.882 9.63484 86.7746 9.89336 86.7746 10.1954C86.7746 10.5033 86.882 10.7648 87.097 10.9797C87.3119 11.1947 87.5733 11.3021 87.8812 11.3021H90.0598L90.0336 9.09748H87.8812ZM87.8812 13.4284C86.9866 13.4284 86.2256 13.1117 85.5982 12.4785C84.9649 11.8511 84.6483 11.0901 84.6483 10.1954C84.6483 9.30661 84.9649 8.5485 85.5982 7.92109C86.2256 7.28787 86.9866 6.97125 87.8812 6.97125H90.0162L90.0075 6.86669C89.9436 6.23928 89.7344 5.78323 89.3801 5.49857C89.0257 5.21391 88.4854 5.07159 87.7592 5.07159H86.853L86.8791 5.55957L86.1907 5.76871L85.7463 2.37024L86.6874 2.30923L86.7223 2.94536H87.7592C89.2 2.94536 90.2544 3.2823 90.9224 3.95619C91.5905 4.63588 91.9914 5.76871 92.125 7.35467C92.1715 7.89494 92.2237 8.92611 92.2818 10.4482C92.2993 10.9303 92.3196 11.4329 92.3428 11.9557C92.3487 12.1184 92.3545 12.2752 92.3603 12.4262C92.3603 12.4727 92.3603 12.5163 92.3603 12.557V12.6092L92.369 12.6964L93.1097 12.74L92.9964 13.4545L87.8812 13.4284Z" fill="#FF8200"/>
<path d="M97.5016 6.79696C96.8741 6.79696 96.3397 7.02063 95.8982 7.46795C95.4509 7.90946 95.2272 8.44392 95.2272 9.07134C95.2272 9.69875 95.4508 10.2332 95.8982 10.6747C96.3397 11.1162 96.8741 11.337 97.5016 11.337H98.3381L98.1203 6.79698L97.5016 6.79696ZM94.2686 18.8572L94.7131 15.7986L95.4015 15.999L95.3753 16.487H96.2816C96.9961 16.4173 97.5422 16.1471 97.9198 15.6766C98.2045 15.3106 98.3788 14.8546 98.4427 14.3085C98.4601 14.1342 98.4659 13.957 98.4601 13.7769C98.4601 13.7246 98.4572 13.6724 98.4514 13.6201L98.4427 13.5678V13.5504L98.434 13.4632H97.5016C96.2874 13.4632 95.2504 13.0333 94.3907 12.1735C93.5309 11.3138 93.101 10.2797 93.101 9.07134C93.101 7.85718 93.5309 6.82021 94.3907 5.96042C95.2504 5.10064 96.2874 4.67074 97.5016 4.67074L101.458 4.67945L101.449 5.62928H100.804V5.79485C100.804 5.85294 100.801 5.91975 100.795 5.99527C100.795 6.21603 100.793 6.45421 100.787 6.70982C100.781 7.49989 100.772 8.26673 100.761 9.01033C100.726 11.3515 100.694 12.9781 100.665 13.8902C100.624 15.2264 100.206 16.2924 99.41 17.0883C98.6141 17.8841 97.5713 18.2821 96.2816 18.2821H95.2446L95.2098 18.9182L94.2686 18.8572Z" fill="#FF8200"/>
<path d="M105.954 6.58783C105.304 6.58783 104.746 6.82021 104.281 7.28496C103.816 7.7439 103.584 8.3016 103.584 8.95805C103.584 9.6087 103.816 10.1664 104.281 10.6311C104.746 11.0959 105.304 11.3283 105.954 11.3283C106.611 11.3283 107.171 11.0959 107.636 10.6311C108.095 10.1664 108.324 9.6087 108.324 8.95805C108.324 8.3016 108.095 7.7439 107.636 7.28496C107.171 6.82021 106.611 6.58783 105.954 6.58783ZM105.954 13.4545C104.717 13.4545 103.657 13.0159 102.774 12.1387C101.896 11.2557 101.458 10.1955 101.458 8.95805C101.458 7.71485 101.896 6.65464 102.774 5.77743C103.657 4.90021 104.717 4.4616 105.954 4.4616C107.197 4.4616 108.258 4.90021 109.135 5.77743C110.012 6.65464 110.451 7.71485 110.451 8.95805C110.451 10.1955 110.012 11.2557 109.135 12.1387C108.258 13.0159 107.197 13.4545 105.954 13.4545Z" fill="#FF8200"/>
<path d="M119.897 13.4545C118.793 13.4545 117.974 13.1553 117.439 12.557C117.033 12.1096 116.803 11.5026 116.751 10.7357L116.742 10.6573L116.054 10.6311L115.923 9.9166L118.86 9.81204L118.825 10.7532L118.232 10.7444V10.8403C118.232 11.1017 118.363 11.3138 118.624 11.4764C118.868 11.6217 119.179 11.6943 119.557 11.6943H119.705C120.042 11.671 120.324 11.5519 120.55 11.337C120.777 11.1221 120.905 10.849 120.934 10.5179C120.957 10.1867 120.876 9.90499 120.69 9.67261C120.498 9.43443 120.237 9.295 119.905 9.25433C117.5 8.94063 116.277 7.9966 116.237 6.42227C116.214 5.66705 116.472 5.0135 117.012 4.46161C117.576 3.88067 118.261 3.5902 119.069 3.5902H120.794V3.00636H121.77L121.517 6.35256L120.794 6.23928V5.71644H119.069C118.848 5.71644 118.662 5.80067 118.511 5.96914C118.389 6.10857 118.34 6.26541 118.363 6.4397C118.392 6.69531 118.5 6.88121 118.685 6.9974C118.802 7.06712 119.014 7.13682 119.322 7.20654L119.444 7.23268L119.644 7.27625L119.836 7.31982C120.469 7.45344 120.983 7.60738 121.378 7.78166C121.889 8.01404 122.296 8.35679 122.598 8.80992C122.906 9.26305 123.06 9.75685 123.06 10.2913C123.06 11.1627 122.749 11.9092 122.127 12.5308C121.512 13.1466 120.768 13.4545 119.897 13.4545Z" fill="#FF8200"/>
<path d="M125.953 12.0951C125.953 12.496 125.811 12.8387 125.526 13.1234C125.241 13.4022 124.899 13.5416 124.498 13.5416C124.097 13.5416 123.754 13.3993 123.469 13.1147C123.191 12.83 123.051 12.4872 123.051 12.0864C123.051 11.6856 123.193 11.3428 123.478 11.0581C123.763 10.7793 124.106 10.6399 124.506 10.6399C124.907 10.6399 125.25 10.7822 125.535 11.0669C125.814 11.3515 125.953 11.6943 125.953 12.0951Z" fill="#FF8200"/>
<path d="M135.8 13.4545C134.58 13.4545 133.537 13.0217 132.671 12.1561C131.806 11.2905 131.373 10.2477 131.373 9.02777C131.373 7.8078 131.806 6.76502 132.671 5.89942C133.537 5.03382 134.58 4.60103 135.8 4.60103H136.114V4.13047H137.09L136.828 7.47666L136.114 7.36338V6.72726H135.8C135.167 6.72726 134.626 6.95382 134.179 7.40695C133.726 7.85427 133.499 8.39454 133.499 9.02777C133.499 9.66099 133.726 10.2042 134.179 10.6573C134.626 11.1046 135.167 11.3283 135.8 11.3283H136.401V13.4545L135.8 13.4545Z" fill="#FF8200"/>
<path d="M140 12.0951C140 12.496 139.858 12.8387 139.573 13.1234C139.288 13.4022 138.946 13.5416 138.545 13.5416C138.144 13.5416 137.801 13.3993 137.516 13.1147C137.238 12.83 137.098 12.4872 137.098 12.0864C137.098 11.6856 137.241 11.3428 137.525 11.0581C137.81 10.7793 138.153 10.6399 138.553 10.6399C138.954 10.6399 139.297 10.7822 139.582 11.0669C139.861 11.3515 140 11.6943 140 12.0951Z" fill="#FF8200"/>
</svg>
