<svg xmlns:mydata="http://www.w3.org/2000/svg" mydata:contrastcolor="11111f" mydata:template="Contrast" mydata:presentation="2.5" mydata:layouttype="undefined" mydata:specialfontid="undefined" mydata:id1="673" mydata:id2="001" mydata:companyname="4Devs by Tiago S. C." mydata:companytagline="From a Dev, to Devs" version="1.1" xmlns="http://www.w3.org/2000/svg" xmlns:xlink="http://www.w3.org/1999/xlink"  viewBox="201 115 146 146"  style="max-height: 275px;"><g fill="#ff8200" fill-rule="none" stroke="none" stroke-width="1" stroke-linecap="butt" stroke-linejoin="miter" stroke-miterlimit="10" stroke-dasharray="" stroke-dashoffset="0" font-family="none" font-weight="none" font-size="none" text-anchor="none" style="mix-blend-mode: normal"><g data-paper-data="{&quot;isGlobalGroup&quot;:true,&quot;bounds&quot;:{&quot;x&quot;:88.83929189081556,&quot;y&quot;:115,&quot;width&quot;:372.3214162183688,&quot;height&quot;:240}}"><g data-paper-data="{&quot;textHeightFactor&quot;:0.49196416526833847,&quot;isSecondaryText&quot;:true}" fill-rule="nonzero"></g><g data-paper-data="{&quot;isIcon&quot;:&quot;true&quot;,&quot;iconType&quot;:&quot;icon&quot;,&quot;rawIconId&quot;:&quot;1491822&quot;,&quot;source&quot;:&quot;noun&quot;,&quot;selectedEffects&quot;:{&quot;container&quot;:&quot;&quot;,&quot;transformation&quot;:&quot;&quot;,&quot;pattern&quot;:&quot;&quot;},&quot;isDetailed&quot;:false,&quot;fillRule&quot;:&quot;evenodd&quot;,&quot;bounds&quot;:{&quot;x&quot;:201.83053974377546,&quot;y&quot;:115,&quot;width&quot;:146.33892051244905,&quot;height&quot;:146.33892051244902},&quot;iconStyle&quot;:&quot;standalone&quot;,&quot;suitableAsStandaloneIcon&quot;:true}" fill-rule="evenodd"><path d="M226.31103,115h97.19661c13.60027,0 24.48049,10.88022 24.66183,24.48049v97.37794c0,13.41894 -11.06155,24.48049 -24.48049,24.48049h-97.37794c-13.41894,0 -24.48049,-11.06155 -24.48049,-24.48049v-97.37794c0,-13.41894 11.06155,-24.48049 24.48049,-24.48049zM215.97483,188.07879c0,32.45931 26.4752,58.93451 58.93451,58.93451c32.45931,0 58.93451,-26.4752 58.93451,-58.93451c0,-32.45931 -26.4752,-58.93451 -58.93451,-58.93451c-1.99471,0 -3.62674,1.63203 -3.62674,3.62674c0,1.99471 1.63203,3.62674 3.62674,3.62674c28.4699,0 51.68103,23.21113 51.68103,51.68103c0,28.4699 -23.21113,51.68103 -51.68103,51.68103c-28.4699,0 -51.68103,-23.21113 -51.68103,-51.68103c0,-1.99471 -1.63203,-3.62674 -3.62674,-3.62674c-1.99471,0 -3.62674,1.63203 -3.62674,3.62674zM278.53607,145.28327c0,-1.99471 -1.63203,-3.62674 -3.62674,-3.62674c-25.56851,0 -46.42226,20.85375 -46.42226,46.42226c0,25.56851 20.67241,46.42226 46.24093,46.42226c25.56851,0 46.42226,-20.85375 46.42226,-46.42226c0,-1.99471 -1.63203,-3.62674 -3.62674,-3.62674c-1.99471,0 -3.62674,1.63203 -3.62674,3.62674c0,21.5791 -17.40835,38.80611 -38.98745,38.80611c-21.5791,0 -38.98745,-17.40835 -38.98745,-38.98745c0,-21.5791 17.40835,-38.98745 38.98745,-38.98745c1.99471,0 3.62674,-1.63203 3.62674,-3.62674zM271.28259,158.33953c0,1.99471 1.63203,3.62674 3.62674,3.62674c14.32562,0 26.11252,11.7869 26.11252,26.11252c0,14.32562 -11.7869,26.11252 -26.11252,26.11252c-14.32562,0 -26.11252,-11.7869 -26.11252,-26.11252c0,-1.99471 -1.63203,-3.62674 -3.62674,-3.62674c-1.99471,0 -3.62674,1.63203 -3.62674,3.62674c0,18.31503 14.86963,33.366 33.366,33.366c18.31503,0 33.366,-14.86963 33.366,-33.366c0,-18.31503 -14.86963,-33.366 -33.366,-33.366c-1.99471,0 -3.62674,1.63203 -3.62674,3.62674z" data-paper-data="{&quot;isPathIcon&quot;:true}"></path></g></g></g></svg>